<?xml version="1.0" encoding="UTF-8"?>
<svg xmlns="http://www.w3.org/2000/svg" viewBox="0 0 500 500">
  <defs>
    <style>
      .cls-1 {
        fill: #263238;
      }

      .cls-1, .cls-2, .cls-3, .cls-4, .cls-5, .cls-6, .cls-7, .cls-8, .cls-9, .cls-10, .cls-11, .cls-12, .cls-13, .cls-14, .cls-15 {
        stroke-width: 0px;
      }

      .cls-2 {
        mix-blend-mode: multiply;
        opacity: .7;
      }

      .cls-2, .cls-7 {
        fill: #e6e6e6;
      }

      .cls-3 {
        fill: #7f3e3b;
      }

      .cls-16 {
        isolation: isolate;
      }

      .cls-4 {
        fill: #f0f0f0;
      }

      .cls-5 {
        fill: #f5f5f5;
      }

      .cls-17 {
        opacity: .3;
      }

      .cls-6 {
        fill: #407bff;
      }

      .cls-8 {
        fill: #ebebeb;
      }

      .cls-9 {
        fill: #e0e0e0;
        opacity: .5;
      }

      .cls-10, .cls-11 {
        fill: #fff;
      }

      .cls-10, .cls-15 {
        opacity: .2;
      }

      .cls-12 {
        fill: #fafafa;
      }

      .cls-13 {
        fill: #630f0f;
      }

      .cls-14 {
        opacity: .1;
      }

      .cls-14, .cls-15 {
        fill: #000;
      }
    </style>
  </defs>
  <g class="cls-16">
    <g id="Background_Complete" data-name="Background Complete">
      <g>
        <rect class="cls-8" y="382.4" width="500" height=".25"/>
        <rect class="cls-8" x="322.53" y="401.21" width="8.69" height=".25"/>
        <rect class="cls-8" x="150.04" y="388.78" width="23.18" height=".25"/>
        <rect class="cls-8" x="402.1" y="394.14" width="56.67" height=".25"/>
        <rect class="cls-8" x="42.72" y="394.14" width="56.67" height=".25"/>
        <path class="cls-8" d="M237.01,337.8H43.91c-3.15,0-5.71-2.56-5.71-5.71V60.66c0-3.15,2.56-5.71,5.71-5.71h193.1c3.15,0,5.71,2.56,5.71,5.71v271.43c0,3.15-2.56,5.71-5.71,5.71ZM43.91,55.2c-3.01,0-5.46,2.45-5.46,5.46v271.43c0,3.01,2.45,5.46,5.46,5.46h193.1c3.01,0,5.46-2.45,5.46-5.46V60.66c0-3.01-2.45-5.46-5.46-5.46H43.91Z"/>
        <path class="cls-8" d="M453.31,337.8h-193.1c-3.15,0-5.71-2.56-5.71-5.71V60.66c0-3.15,2.56-5.71,5.71-5.71h193.1c3.15,0,5.71,2.56,5.71,5.71v271.43c0,3.15-2.56,5.71-5.71,5.71ZM260.21,55.2c-3.01,0-5.46,2.45-5.46,5.46v271.43c0,3.01,2.45,5.46,5.46,5.46h193.1c3.01,0,5.46-2.45,5.46-5.46V60.66c0-3.01-2.45-5.46-5.46-5.46h-193.1Z"/>
      </g>
      <g>
        <g>
          <g>
            <g>
              <rect class="cls-7" x="113.3" y="92.14" width="265.52" height="144.23" transform="translate(492.12 328.5) rotate(180)"/>
              <rect class="cls-5" x="110.29" y="92.14" width="265.52" height="144.23" transform="translate(486.09 328.5) rotate(180)"/>
              <rect class="cls-11" x="177.01" y="36.91" width="132.07" height="254.69" transform="translate(407.3 -78.8) rotate(90)"/>
              <rect class="cls-7" x="50.81" y="163.11" width="132.07" height="2.28" transform="translate(281.09 47.41) rotate(90)"/>
              <rect class="cls-5" x="112.53" y="198.99" width="261.04" height="8.16" transform="translate(486.09 406.15) rotate(180)"/>
              <rect class="cls-5" x="112.53" y="129.66" width="261.04" height="8.16" transform="translate(486.09 267.48) rotate(180)"/>
            </g>
            <g>
              <path class="cls-7" d="M104.39,82.07h280.33c.46,0,.83.38.83.83h0c0,.46-.38.83-.83.83H104.39c-.46,0-.83-.38-.83-.83h0c0-.46.38-.83.83-.83Z"/>
              <path class="cls-7" d="M99.39,82.91c0,2.3,1.87,4.17,4.17,4.17s4.17-1.87,4.17-4.17-1.87-4.17-4.17-4.17-4.17,1.87-4.17,4.17Z"/>
              <path class="cls-7" d="M377.7,87.57h0c.62,0,1.13-.51,1.13-1.13v-2.42c0-.62-.51-1.13-1.13-1.13h0c-.62,0-1.13.51-1.13,1.13v2.42c0,.62.51,1.13,1.13,1.13Z"/>
              <path class="cls-7" d="M116.95,87.57h0c.62,0,1.13-.51,1.13-1.13v-2.42c0-.62-.51-1.13-1.13-1.13h0c-.62,0-1.13.51-1.13,1.13v2.42c0,.62.51,1.13,1.13,1.13Z"/>
            </g>
          </g>
          <rect class="cls-9" x="104.65" y="82.91" width="268.91" height="30.28" transform="translate(478.22 196.1) rotate(180)"/>
          <circle class="cls-7" cx="364.29" cy="82.91" r="4.17"/>
        </g>
        <g>
          <g>
            <rect class="cls-7" x="295.89" y="268.35" width="17.06" height="114.04" transform="translate(608.84 650.75) rotate(180)"/>
            <polygon class="cls-4" points="300.38 382.4 295.89 382.4 295.89 366.87 305.08 366.87 300.38 382.4"/>
            <rect class="cls-7" x="434.43" y="268.35" width="17.06" height="114.04" transform="translate(885.92 650.75) rotate(180)"/>
            <rect class="cls-4" x="295.89" y="268.35" width="142.45" height="104.51" transform="translate(734.23 641.22) rotate(180)"/>
            <rect class="cls-7" x="299.37" y="272.99" width="135.49" height="28.66" transform="translate(734.23 574.63) rotate(180)"/>
            <path class="cls-4" d="M326.25,281.89h78.71c4.38,0,8.56-3.54,11.57-9.78h-101.86c3.01,6.24,7.2,9.78,11.57,9.78Z"/>
            <polygon class="cls-4" points="433.85 382.4 438.34 382.4 438.34 366.87 429.15 366.87 433.85 382.4"/>
            <rect class="cls-7" x="299.37" y="306.28" width="135.49" height="28.66" transform="translate(734.23 641.22) rotate(180)"/>
            <path class="cls-4" d="M326.25,315.19h78.71c4.38,0,8.56-3.54,11.57-9.78h-101.86c3.01,6.24,7.2,9.78,11.57,9.78Z"/>
            <rect class="cls-7" x="299.37" y="339.57" width="135.49" height="28.66" transform="translate(734.23 707.81) rotate(180)"/>
            <path class="cls-4" d="M326.25,348.48h78.71c4.38,0,8.56-3.54,11.57-9.78h-101.86c3.01,6.24,7.2,9.78,11.57,9.78Z"/>
          </g>
          <g>
            <g>
              <path class="cls-5" d="M399.22,211.18c-2.7-9.08,30.93-54.56,45.7-53.2s-11.2,56.53-19.16,61.41c-8.99,5.51-23.6,1.69-26.54-8.2Z"/>
              <path class="cls-5" d="M397.29,224.29c-1.3-4.64,22.21-12.19,31.55-6.71s-9.74,19.56-15.03,18.92c-5.98-.72-15.1-7.15-16.52-12.2Z"/>
              <path class="cls-5" d="M425.85,220.13c3.26-6.09-20.69-41.73-33.44-42.38s3.63,40.97,9.92,45.26c7.1,4.85,19.98,3.76,23.52-2.88Z"/>
              <path class="cls-8" d="M413.58,201.17h-.05c-1.25-.02-2.33.88-2.51,2.12-2.77,18.84-3.11,37.84-1,56.76.14,1.24,1.19,2.19,2.44,2.21h.05c1.5.03,2.67-1.27,2.51-2.76-2.01-18.5-1.68-37.06.97-55.48.21-1.49-.91-2.83-2.41-2.85Z"/>
            </g>
            <path class="cls-12" d="M411.75,268.35h0c8.84,0,16.29-5.21,18.1-12.25.48-1.86,1.03-3.71,1.89-5.48l.14-.28h-40.26l.14.28c.86,1.76,1.41,3.61,1.89,5.48,1.81,7.04,9.27,12.25,18.1,12.25Z"/>
            <path class="cls-4" d="M391.54,252.11h40.42c1.12,0,2.1-1.1,2.38-2.68h0c.4-2.26-.78-4.47-2.38-4.47h-40.42c-1.61,0-2.78,2.2-2.38,4.47h0c.28,1.58,1.26,2.68,2.38,2.68Z"/>
          </g>
        </g>
        <g>
          <g>
            <rect class="cls-4" x="217.1" y="310.56" width="49.81" height="71.84"/>
            <rect class="cls-5" x="68.96" y="310.56" width="148.14" height="71.84" transform="translate(286.07 692.96) rotate(180)"/>
            <rect class="cls-12" x="81.98" y="334.61" width="31.32" height="31.89" transform="translate(195.28 701.1) rotate(180)"/>
            <rect class="cls-12" x="124.5" y="334.61" width="31.32" height="31.89" transform="translate(280.32 701.1) rotate(180)"/>
            <rect class="cls-2" x="68.44" y="318.2" width="198.47" height="4.09"/>
          </g>
          <g>
            <rect class="cls-4" x="217.1" y="308.08" width="52.56" height="11.85"/>
            <rect class="cls-5" x="66.21" y="308.08" width="150.89" height="11.85" transform="translate(283.32 628) rotate(180)"/>
          </g>
        </g>
        <path class="cls-4" d="M108.9,287.91s.95,20.17,37.3,20.17,37.3-20.17,37.3-20.17h-74.6Z"/>
        <path class="cls-4" d="M108.9,274.55s.95,20.17,37.3,20.17,37.3-20.17,37.3-20.17h-74.6Z"/>
      </g>
    </g>
    <g id="Shadow">
      <ellipse id="_Path_" data-name="&amp;lt;Path&amp;gt;" class="cls-5" cx="250" cy="416.24" rx="193.89" ry="11.32"/>
    </g>
    <g id="Coins">
      <g>
        <g>
          <rect class="cls-6" x="93.15" y="394.46" width="98.19" height="18.48"/>
          <rect class="cls-15" x="93.15" y="394.46" width="98.19" height="2.1"/>
          <rect class="cls-15" x="100.34" y="394.46" width="3.87" height="18.48"/>
          <rect class="cls-15" x="109.22" y="394.46" width="3.87" height="18.48"/>
          <rect class="cls-15" x="118.11" y="394.46" width="3.87" height="18.48"/>
          <rect class="cls-15" x="126.99" y="394.46" width="3.87" height="18.48"/>
          <rect class="cls-15" x="135.87" y="394.46" width="3.87" height="18.48"/>
          <rect class="cls-15" x="144.76" y="394.46" width="3.87" height="18.48"/>
          <rect class="cls-15" x="153.64" y="394.46" width="3.87" height="18.48"/>
          <rect class="cls-15" x="162.52" y="394.46" width="3.87" height="18.48"/>
          <rect class="cls-15" x="171.41" y="394.46" width="3.87" height="18.48"/>
          <rect class="cls-15" x="180.29" y="394.46" width="3.87" height="18.48"/>
        </g>
        <g>
          <rect class="cls-6" x="89.16" y="375.98" width="98.19" height="18.48"/>
          <rect class="cls-15" x="89.16" y="375.98" width="98.19" height="2.1"/>
          <rect class="cls-15" x="96.34" y="375.98" width="3.87" height="18.48"/>
          <rect class="cls-15" x="105.23" y="375.98" width="3.87" height="18.48"/>
          <rect class="cls-15" x="114.11" y="375.98" width="3.87" height="18.48"/>
          <rect class="cls-15" x="122.99" y="375.98" width="3.87" height="18.48"/>
          <rect class="cls-15" x="131.88" y="375.98" width="3.87" height="18.48"/>
          <rect class="cls-15" x="140.76" y="375.98" width="3.87" height="18.48"/>
          <rect class="cls-15" x="149.64" y="375.98" width="3.87" height="18.48"/>
          <rect class="cls-15" x="158.53" y="375.98" width="3.87" height="18.48"/>
          <rect class="cls-15" x="167.41" y="375.98" width="3.87" height="18.48"/>
          <rect class="cls-15" x="176.29" y="375.98" width="3.87" height="18.48"/>
        </g>
        <g>
          <rect class="cls-6" x="86.33" y="357.5" width="98.19" height="18.48"/>
          <rect class="cls-15" x="86.33" y="357.5" width="98.19" height="2.1"/>
          <rect class="cls-15" x="93.52" y="357.5" width="3.87" height="18.48"/>
          <rect class="cls-15" x="102.4" y="357.5" width="3.87" height="18.48"/>
          <rect class="cls-15" x="111.29" y="357.5" width="3.87" height="18.48"/>
          <rect class="cls-15" x="120.17" y="357.5" width="3.87" height="18.48"/>
          <rect class="cls-15" x="129.05" y="357.5" width="3.87" height="18.48"/>
          <rect class="cls-15" x="137.94" y="357.5" width="3.87" height="18.48"/>
          <rect class="cls-15" x="146.82" y="357.5" width="3.87" height="18.48"/>
          <rect class="cls-15" x="155.7" y="357.5" width="3.87" height="18.48"/>
          <rect class="cls-15" x="164.59" y="357.5" width="3.87" height="18.48"/>
          <rect class="cls-15" x="173.47" y="357.5" width="3.87" height="18.48"/>
        </g>
        <g>
          <rect class="cls-6" x="90.78" y="339.03" width="98.19" height="18.48"/>
          <rect class="cls-15" x="90.78" y="339.03" width="98.19" height="2.1"/>
          <rect class="cls-15" x="97.96" y="339.03" width="3.87" height="18.48"/>
          <rect class="cls-15" x="106.85" y="339.03" width="3.87" height="18.48"/>
          <rect class="cls-15" x="115.73" y="339.03" width="3.87" height="18.48"/>
          <rect class="cls-15" x="124.61" y="339.03" width="3.87" height="18.48"/>
          <rect class="cls-15" x="133.5" y="339.03" width="3.87" height="18.48"/>
          <rect class="cls-15" x="142.38" y="339.03" width="3.87" height="18.48"/>
          <rect class="cls-15" x="151.26" y="339.03" width="3.87" height="18.48"/>
          <rect class="cls-15" x="160.15" y="339.03" width="3.87" height="18.48"/>
          <rect class="cls-15" x="169.03" y="339.03" width="3.87" height="18.48"/>
          <rect class="cls-15" x="177.91" y="339.03" width="3.87" height="18.48"/>
        </g>
        <g>
          <rect class="cls-6" x="86.46" y="320.55" width="98.19" height="18.48" transform="translate(271.12 659.57) rotate(180)"/>
          <rect class="cls-15" x="86.46" y="320.55" width="98.19" height="2.1" transform="translate(271.12 643.19) rotate(180)"/>
          <rect class="cls-15" x="173.6" y="320.55" width="3.87" height="18.48" transform="translate(351.07 659.57) rotate(180)"/>
          <rect class="cls-15" x="164.72" y="320.55" width="3.87" height="18.48" transform="translate(333.3 659.57) rotate(180)"/>
          <rect class="cls-15" x="155.83" y="320.55" width="3.87" height="18.48" transform="translate(315.53 659.57) rotate(180)"/>
          <rect class="cls-15" x="146.95" y="320.55" width="3.87" height="18.48" transform="translate(297.77 659.57) rotate(180)"/>
          <rect class="cls-15" x="138.07" y="320.55" width="3.87" height="18.48" transform="translate(280 659.57) rotate(180)"/>
          <rect class="cls-15" x="129.18" y="320.55" width="3.87" height="18.48" transform="translate(262.23 659.57) rotate(180)"/>
          <rect class="cls-15" x="120.3" y="320.55" width="3.87" height="18.48" transform="translate(244.47 659.57) rotate(180)"/>
          <rect class="cls-15" x="111.42" y="320.55" width="3.87" height="18.48" transform="translate(226.7 659.57) rotate(180)"/>
          <rect class="cls-15" x="102.53" y="320.55" width="3.87" height="18.48" transform="translate(208.93 659.57) rotate(180)"/>
          <rect class="cls-15" x="93.65" y="320.55" width="3.87" height="18.48" transform="translate(191.17 659.57) rotate(180)"/>
        </g>
        <g>
          <rect class="cls-6" x="90.46" y="302.07" width="98.19" height="18.48" transform="translate(279.11 622.62) rotate(180)"/>
          <rect class="cls-15" x="90.46" y="302.07" width="98.19" height="2.1" transform="translate(279.11 606.24) rotate(180)"/>
          <rect class="cls-15" x="177.6" y="302.07" width="3.87" height="18.48" transform="translate(359.06 622.62) rotate(180)"/>
          <rect class="cls-15" x="168.71" y="302.07" width="3.87" height="18.48" transform="translate(341.3 622.62) rotate(180)"/>
          <rect class="cls-15" x="159.83" y="302.07" width="3.87" height="18.48" transform="translate(323.53 622.62) rotate(180)"/>
          <rect class="cls-15" x="150.95" y="302.07" width="3.87" height="18.48" transform="translate(305.76 622.62) rotate(180)"/>
          <rect class="cls-15" x="142.06" y="302.07" width="3.87" height="18.48" transform="translate(288 622.62) rotate(180)"/>
          <rect class="cls-15" x="133.18" y="302.07" width="3.87" height="18.48" transform="translate(270.23 622.62) rotate(180)"/>
          <rect class="cls-15" x="124.3" y="302.07" width="3.87" height="18.48" transform="translate(252.46 622.62) rotate(180)"/>
          <rect class="cls-15" x="115.41" y="302.07" width="3.87" height="18.48" transform="translate(234.7 622.62) rotate(180)"/>
          <rect class="cls-15" x="106.53" y="302.07" width="3.87" height="18.48" transform="translate(216.93 622.62) rotate(180)"/>
          <rect class="cls-15" x="97.65" y="302.07" width="3.87" height="18.48" transform="translate(199.16 622.62) rotate(180)"/>
        </g>
        <g>
          <rect class="cls-6" x="93.28" y="283.59" width="98.19" height="18.48" transform="translate(284.76 585.66) rotate(180)"/>
          <rect class="cls-15" x="93.28" y="283.59" width="98.19" height="2.1" transform="translate(284.76 569.28) rotate(180)"/>
          <rect class="cls-15" x="180.42" y="283.59" width="3.87" height="18.48" transform="translate(364.71 585.66) rotate(180)"/>
          <rect class="cls-15" x="171.54" y="283.59" width="3.87" height="18.48" transform="translate(346.94 585.66) rotate(180)"/>
          <rect class="cls-15" x="162.65" y="283.59" width="3.87" height="18.48" transform="translate(329.17 585.66) rotate(180)"/>
          <rect class="cls-15" x="153.77" y="283.59" width="3.87" height="18.48" transform="translate(311.41 585.66) rotate(180)"/>
          <rect class="cls-15" x="144.89" y="283.59" width="3.87" height="18.48" transform="translate(293.64 585.66) rotate(180)"/>
          <rect class="cls-15" x="136" y="283.59" width="3.87" height="18.48" transform="translate(275.87 585.66) rotate(180)"/>
          <rect class="cls-15" x="127.12" y="283.59" width="3.87" height="18.48" transform="translate(258.11 585.66) rotate(180)"/>
          <rect class="cls-15" x="118.24" y="283.59" width="3.87" height="18.48" transform="translate(240.34 585.66) rotate(180)"/>
          <rect class="cls-15" x="109.35" y="283.59" width="3.87" height="18.48" transform="translate(222.57 585.66) rotate(180)"/>
          <rect class="cls-15" x="100.47" y="283.59" width="3.87" height="18.48" transform="translate(204.81 585.66) rotate(180)"/>
        </g>
        <g>
          <rect class="cls-6" x="88.84" y="265.11" width="98.19" height="18.48" transform="translate(275.87 548.7) rotate(180)"/>
          <rect class="cls-15" x="88.84" y="265.11" width="98.19" height="2.1" transform="translate(275.87 532.32) rotate(180)"/>
          <rect class="cls-15" x="175.98" y="265.11" width="3.87" height="18.48" transform="translate(355.82 548.7) rotate(180)"/>
          <rect class="cls-15" x="167.09" y="265.11" width="3.87" height="18.48" transform="translate(338.06 548.7) rotate(180)"/>
          <rect class="cls-15" x="158.21" y="265.11" width="3.87" height="18.48" transform="translate(320.29 548.7) rotate(180)"/>
          <rect class="cls-15" x="149.33" y="265.11" width="3.87" height="18.48" transform="translate(302.52 548.7) rotate(180)"/>
          <rect class="cls-15" x="140.44" y="265.11" width="3.87" height="18.48" transform="translate(284.76 548.7) rotate(180)"/>
          <rect class="cls-15" x="131.56" y="265.11" width="3.87" height="18.48" transform="translate(266.99 548.7) rotate(180)"/>
          <rect class="cls-15" x="122.68" y="265.11" width="3.87" height="18.48" transform="translate(249.22 548.7) rotate(180)"/>
          <rect class="cls-15" x="113.79" y="265.11" width="3.87" height="18.48" transform="translate(231.46 548.7) rotate(180)"/>
          <rect class="cls-15" x="104.91" y="265.11" width="3.87" height="18.48" transform="translate(213.69 548.7) rotate(180)"/>
          <rect class="cls-15" x="96.03" y="265.11" width="3.87" height="18.48" transform="translate(195.92 548.7) rotate(180)"/>
        </g>
      </g>
    </g>
    <g id="Growth">
      <g>
        <g>
          <path class="cls-6" d="M400.66,191.98l-39.16,6.71c-3.39.58-4.38,4.97-1.58,6.95l7.22,5.11-44.26,62.58c-1.21,1.71-3.59,2.12-5.3.91l-65.06-46.03c-1.71-1.21-4.09-.81-5.3.91l-131.18,185.44h47.15l93.22-131.78c1.21-1.71,3.58-2.12,5.3-.91l65.07,46.03c1.71,1.21,4.09.81,5.3-.91l66.49-94,7.22,5.11c2.81,1.99,6.61-.41,6.03-3.8l-6.71-39.16c-.36-2.1-2.35-3.51-4.45-3.15Z"/>
          <path class="cls-15" d="M400.66,191.98l-39.16,6.71c-3.39.58-4.38,4.97-1.58,6.95l7.22,5.11-44.26,62.58c-1.21,1.71-3.59,2.12-5.3.91l-65.06-46.03c-1.71-1.21-4.09-.81-5.3.91l-131.18,185.44h47.15l93.22-131.78c1.21-1.71,3.58-2.12,5.3-.91l65.07,46.03c1.71,1.21,4.09.81,5.3-.91l66.49-94,7.22,5.11c2.81,1.99,6.61-.41,6.03-3.8l-6.71-39.16c-.36-2.1-2.35-3.51-4.45-3.15Z"/>
        </g>
        <path class="cls-10" d="M160.24,409.11h-33.18c-.09,0-.18-.05-.22-.14-.04-.08-.04-.18.02-.26l121.52-171.8c.62-.88,1.56-1.47,2.62-1.65,1.06-.18,2.14.06,3.02.69l65.07,46.03c.77.55,1.72.76,2.65.6.93-.16,1.75-.68,2.3-1.45l50.7-71.68-8.04-5.69c-.08-.06-.12-.16-.1-.26.02-.1.1-.17.2-.19l32.96-5.65c.07-.01.13,0,.19.04.05.04.09.1.1.16l5.65,32.96c.02.1-.03.2-.11.25-.09.05-.2.05-.28,0l-8.04-5.69-66.35,93.8c-.62.88-1.56,1.47-2.62,1.65-1.07.18-2.14-.06-3.02-.69l-65.07-46.03c-1.6-1.13-3.82-.75-4.95.85l-94.81,134.03c-.05.07-.12.11-.2.11ZM127.54,408.61h32.57l94.74-133.92c1.29-1.82,3.82-2.26,5.65-.97l65.07,46.03c.77.55,1.72.76,2.65.6.94-.16,1.75-.68,2.3-1.45l66.49-94c.04-.05.1-.09.16-.1.06-.01.13,0,.19.04l7.75,5.48-5.5-32.12-32.12,5.51,7.75,5.48c.05.04.09.1.1.16.01.07,0,.13-.04.19l-50.85,71.89c-.62.88-1.56,1.47-2.62,1.65-1.07.18-2.14-.06-3.02-.69l-65.07-46.03c-.78-.55-1.72-.76-2.65-.6-.93.16-1.75.68-2.3,1.45l-121.24,171.4Z"/>
      </g>
    </g>
    <g id="Chart">
      <g>
        <g>
          <rect class="cls-1" x="343.94" y="351.79" width="4.11" height="61.15"/>
          <rect class="cls-1" x="379.9" y="318.47" width="4.11" height="94.47"/>
          <rect class="cls-1" x="416.52" y="341.13" width="4.11" height="71.81"/>
        </g>
        <g>
          <rect class="cls-6" x="315.13" y="351.79" width="28.82" height="61.15"/>
          <polygon class="cls-10" points="315.13 351.79 315.13 388.05 329.53 351.79 315.13 351.79"/>
          <rect class="cls-6" x="351.08" y="318.47" width="28.82" height="94.47"/>
          <polygon class="cls-10" points="351.08 318.47 351.08 354.73 365.49 318.47 351.08 318.47"/>
          <rect class="cls-6" x="387.71" y="341.13" width="28.82" height="71.81"/>
          <polygon class="cls-10" points="387.71 341.13 387.71 373.4 402.12 341.13 387.71 341.13"/>
        </g>
      </g>
    </g>
    <g id="Character">
      <g>
        <polygon class="cls-3" points="248.08 407.94 240.35 406.48 241.66 388.2 249.39 389.66 248.08 407.94"/>
        <polygon class="cls-3" points="300.1 407.73 292.23 407.73 290.28 389.52 298.14 389.52 300.1 407.73"/>
        <path class="cls-1" d="M291.59,406.82h9.59c.32,0,.6.22.67.54l1.55,6.99c.16.73-.41,1.41-1.15,1.4-3.08-.05-5.34-.23-9.22-.23-2.39,0-9.6.25-12.9.25s-3.73-3.26-2.38-3.56c6.06-1.33,10.62-3.15,12.56-4.9.35-.31.81-.48,1.28-.48Z"/>
        <path class="cls-1" d="M240.51,404.79l8.46,1.46c.32.05.55.32.57.64l.34,7.15c.04.74-.62,1.32-1.35,1.19-3.04-.58-7.42-1.52-11.26-2.18-4.49-.77-6.68-1.33-11.94-2.24-3.18-.55-2.48-4.03-1.1-4.09,6.29-.28,8.51.68,14.31-1.65.63-.25,1.3-.4,1.97-.28Z"/>
        <path class="cls-3" d="M267.44,167.09c-.26.79-.48,1.38-.73,2.05-.24.65-.5,1.28-.76,1.91-.52,1.26-1.07,2.51-1.65,3.74-1.15,2.47-2.45,4.88-3.89,7.25-2.91,4.7-6.38,9.29-11.27,13.08-1.26.92-2.56,1.8-4.02,2.54-.35.2-.72.37-1.11.54-.39.17-.72.33-1.17.5-1.01.38-1.89.58-2.73.74-1.67.3-3.13.36-4.57.39-1.43.03-2.82-.03-4.18-.14-5.43-.42-10.54-1.4-15.67-2.84l.79-5.85c4.99-.19,10.07-.34,14.83-.76,1.19-.12,2.36-.26,3.46-.42,1.1-.17,2.17-.39,2.99-.66.4-.13.76-.27.93-.38.33-.2.77-.39,1.15-.65.79-.46,1.55-1.09,2.31-1.73,1.52-1.33,2.97-2.92,4.29-4.72,1.35-1.77,2.59-3.71,3.74-5.73,1.17-2.01,2.23-4.13,3.25-6.27.51-1.07.99-2.16,1.45-3.25l.67-1.63.6-1.54,11.29,3.83Z"/>
        <g>
          <path class="cls-6" d="M263.65,157.87c14.35-.01-1.42,30.98-1.42,30.98l-18.31-7.4s5-10.79,8.29-16.95c3.11-5.83,8.26-6.63,11.44-6.63Z"/>
          <g class="cls-17">
            <path class="cls-11" d="M263.65,157.87c14.35-.01-1.42,30.98-1.42,30.98l-18.31-7.4s5-10.79,8.29-16.95c3.11-5.83,8.26-6.63,11.44-6.63Z"/>
          </g>
        </g>
        <path class="cls-15" d="M260.14,167.89c-5.25,3.69-8.9,10.54-9.94,16.1l10.46,4.24c1.9-2.84,3.75-6.19,5.79-9.13.56-1.53,1.11-3.14,1.59-4.77l-7.9-6.44Z"/>
        <path class="cls-3" d="M220.96,191.72l-6.29-3.55-4.82,9.03s4.33.83,8.39-.21l2.72-5.27Z"/>
        <polygon class="cls-3" points="208.7 188.17 205.19 196.11 209.85 197.2 214.67 188.17 208.7 188.17"/>
        <g>
          <polygon class="cls-15" points="241.66 388.21 240.99 397.63 248.72 399.09 249.39 389.66 241.66 388.21"/>
          <polygon class="cls-15" points="298.14 389.53 290.27 389.53 291.29 398.92 299.15 398.92 298.14 389.53"/>
        </g>
        <g>
          <path class="cls-6" d="M302.78,161.3c-2.43,8.69-3.98,17.54-5,25.87-.74,6.09-1.19,11.91-1.47,17.18-.65,12.36-.38,21.78-.75,24.98-6.15-.43-29.32-2.04-41.96-2.92-5.71-44.73,5.2-67.78,5.2-67.78,0,0,4.64-.93,10.04-1.24.71-.05,1.43-.07,2.17-.09,4.75-.1,12.5.61,17.84,1.24,1.12.13,2.26.3,3.36.48,5.62.91,10.56,2.28,10.56,2.28Z"/>
          <g class="cls-17">
            <path class="cls-11" d="M302.78,161.3c-2.43,8.69-3.98,17.54-5,25.87-.74,6.09-1.19,11.91-1.47,17.18-.65,12.36-.38,21.78-.75,24.98-6.15-.43-29.32-2.04-41.96-2.92-5.71-44.73,5.2-67.78,5.2-67.78,0,0,4.64-.93,10.04-1.24.71-.05,1.43-.07,2.17-.09,4.75-.1,12.5.61,17.84,1.24,1.12.13,2.26.3,3.36.48,5.62.91,10.56,2.28,10.56,2.28Z"/>
          </g>
        </g>
        <path class="cls-15" d="M292.19,172.62c-.02,7.03,1.92,12.97,5.19,18.18.12-1.2.26-2.41.4-3.63.56-4.58,1.28-9.32,2.24-14.11l-7.84-.45Z"/>
        <path class="cls-3" d="M288.49,138.33c-1.53,5.66-3.38,16.1.37,20.21-3.16,2.83-7.7,5.1-14.13,4.51-4.93-.45-4.94-3.92-3.7-5.76,6.51-1.08,6.67-5.84,5.87-10.38l11.6-8.58Z"/>
        <path class="cls-1" d="M271.11,164.92c.05.73.37,1.82.62,2.6.18.54.68.91,1.26.91.71,0,1.69.04,2.45.21.34.07.68.01.97-.17,1.01-.63,2.28-1.57,1.95-2.73-.39-1.36-2.73-2.59-2.73-2.59,0,0-3.99.99-4.51,1.77Z"/>
        <path class="cls-1" d="M273.22,167.51c-1.61,3.51-5.33,26.06-5.79,29.47-.46,3.42,1.11,8.9,3.29,13.28,2.33-2.99,3.82-7.13,4.1-11.79.29-4.66.57-30.4.57-30.4l-2.17-.56Z"/>
        <path class="cls-11" d="M275.62,163.15s2.5,2.04,3.62,4.48c2.53-.19,13.7-5.1,12.11-8.88-1.39-.39-2.61-1.19-2.96-.78-.57.8-5.31,3.66-12.78,5.17Z"/>
        <path class="cls-11" d="M275.62,163.15s-4.28,1.45-5.29,3.9c-2.58-1.15-3.98-6.34-1.71-9.75,1.44-.12,2.8-.83,3.06-.36.41.9-.71,3.28,3.94,6.22Z"/>
        <path class="cls-15" d="M283.76,141.84l-6.87,5.08c.19,1.07.33,2.16.33,3.2,2.47-.18,6.02-2.63,6.45-5.17.22-1.27.25-2.5.08-3.11Z"/>
        <path class="cls-1" d="M271.83,120.12c-3.03,1.19-4.1,12.79,2,11.65s4.05-14.03-2-11.65Z"/>
        <path class="cls-3" d="M291.64,131.73c-2.44,7.41-3.5,11.87-8.32,14.74-7.25,4.31-15.64-1.59-15.46-9.58.16-7.19,4.13-18.11,12.29-19.16,8.04-1.04,13.93,6.59,11.49,14Z"/>
        <path class="cls-1" d="M288.86,136.83c-3.11.06-5.66-9.36.62-11.98-4.94-.57-20.11.26-22.83-6.52-2.72-6.78,7.83-7.83,11.42-5.28-1.14-3.72,3.5-9.22,11.85-4.22s8.24,11.17,7.46,13c3.72,1,4.45,9.28.34,10.39,2.41,3.33.33,10.36-6.17,8.86-.22,4.08-4.77,2.29-4.5-.84.28-3.13,1.83-3.41,1.83-3.41Z"/>
        <path class="cls-1" d="M275,138.64s0,0,0,0c3.11.8,5.09-.97,5.17-1.05.08-.07.09-.2.01-.28s-.2-.09-.28-.01c-.02.02-1.9,1.7-4.8.95-.11-.03-.22.04-.24.14-.03.11.04.21.14.24Z"/>
        <path class="cls-3" d="M293.19,139.59c-1.52,1.45-3.58,2.06-5.3,1.99-2.6-.11-3.1-2.62-1.71-4.66,1.25-1.83,4.11-3.98,6.4-2.88,2.25,1.08,2.36,3.89.61,5.55Z"/>
        <path class="cls-1" d="M238.38,394.58l12.95,3.08s4.61-50.65,8.56-78.49c1.05-7.38,2.66-17.76,5.13-28.82,3.11-13.94,7.02-29,10.22-40.8,3.37-12.43,5.94-21.22,5.94-21.22l-27.58-1.92s-14.92,65.09-16.51,89.04c-1.65,24.9,1.28,79.13,1.28,79.13Z"/>
        <path class="cls-15" d="M265.03,290.35c3.11-13.94,7.02-29,10.22-40.8l-2.86-6.16c-6.84,8.13-8.68,33.3-7.36,46.97Z"/>
        <path class="cls-1" d="M268.49,227.44s2.98,67.32,6.3,90.12c3.64,24.97,12.87,79.54,12.87,79.54h14.4s-4-51.87-6.71-76.32c-3.09-27.85.22-91.45.22-91.45l-27.07-1.89Z"/>
        <polygon class="cls-6" points="285.93 397.41 302.89 397.41 303.64 392.34 284.92 392.01 285.93 397.41"/>
        <polygon class="cls-6" points="237.55 395.45 252.32 398.23 253.99 393.08 237.14 389.89 237.55 395.45"/>
        <path class="cls-1" d="M280.25,131.14c-.16.61-.62,1.03-1.02.92-.4-.11-.6-.69-.43-1.3.16-.61.62-1.03,1.02-.92.4.11.6.69.43,1.3Z"/>
        <path class="cls-1" d="M273.31,129.32c-.16.61-.62,1.03-1.02.92-.4-.11-.6-.69-.43-1.3.16-.61.62-1.03,1.02-.92s.6.69.43,1.3Z"/>
        <path class="cls-13" d="M274.85,129.89s-2.33,3.17-4.31,4.48c.82,1.3,2.91,1.19,2.91,1.19l1.4-5.66Z"/>
        <path class="cls-1" d="M282.4,129.15c-.14-.01-.26-.1-.32-.23-.63-1.54-1.98-1.81-1.99-1.81-.2-.04-.34-.23-.3-.44.04-.2.23-.34.44-.3.07.01,1.76.35,2.54,2.26.08.19-.01.41-.2.49-.06.02-.11.03-.17.03Z"/>
        <path class="cls-1" d="M270.38,125.84c-.08,0-.15-.04-.21-.09-.16-.13-.17-.37-.04-.53,1.34-1.56,3.05-1.36,3.12-1.35.2.03.35.21.32.42-.03.2-.22.35-.42.32h0c-.06,0-1.39-.16-2.46,1.09-.08.09-.2.14-.31.13Z"/>
        <path class="cls-6" d="M288.99,408.2c-.6,0-1.16-.1-1.51-.4-.28-.24-.41-.57-.39-.98.02-.31.18-.46.32-.53.87-.45,3.41,1.11,3.69,1.29.06.04.1.11.09.19-.01.07-.07.13-.14.15-.55.13-1.33.28-2.06.28ZM287.82,406.57c-.1,0-.18.01-.24.05-.05.03-.11.07-.12.22-.02.3.06.52.25.68.43.36,1.46.41,2.79.14-.89-.51-2.08-1.08-2.69-1.08Z"/>
        <path class="cls-6" d="M291,407.92s-.06,0-.09-.02c-.81-.44-2.39-2.17-2.22-3.04.03-.16.15-.43.59-.49.29-.03.56.04.79.24.91.75,1.1,3.02,1.11,3.11,0,.07-.03.13-.08.17-.03.02-.07.03-.1.03ZM289.41,404.73s-.06,0-.08,0c-.24.03-.26.14-.27.19-.1.52.9,1.82,1.71,2.43-.09-.66-.34-1.99-.93-2.46-.13-.11-.27-.16-.43-.16Z"/>
        <path class="cls-6" d="M239.57,405.73s-.02,0-.03,0c-1.29.03-3.57-.05-4.28-.94-.22-.27-.28-.59-.19-.95.05-.22.19-.37.39-.44,1.02-.35,3.87,1.75,4.19,2,.06.05.09.13.07.21-.02.06-.07.11-.14.12ZM235.63,403.74s-.03,0-.05.01c-.08.03-.13.08-.15.18-.06.24-.02.45.12.63.4.5,1.67.8,3.43.81-1.14-.81-2.74-1.75-3.34-1.63Z"/>
        <path class="cls-6" d="M239.57,405.73s-.1,0-.14-.03c-.86-.58-2.43-2.58-2.13-3.43.07-.2.26-.43.77-.4.38.03.71.19.96.49.85.98.69,3.1.69,3.19,0,.07-.04.12-.1.15-.01,0-.03.01-.04.01ZM237.83,402.26c-.14.03-.17.11-.18.14-.18.51.86,2.04,1.71,2.78,0-.63-.06-1.92-.61-2.57-.19-.22-.42-.34-.71-.36-.09,0-.16,0-.22,0Z"/>
        <g>
          <g>
            <g>
              <path class="cls-6" d="M267.11,196.42l-3.19-2.28-52.3,73.21,3.19,2.28c20.22,14.44,48.31,9.76,62.75-10.46,14.44-20.22,9.76-48.31-10.46-62.75Z"/>
              <path class="cls-14" d="M267.11,196.42l-3.19-2.28-52.3,73.21,3.19,2.28c20.22,14.44,48.31,9.76,62.75-10.46,14.44-20.22,9.76-48.31-10.46-62.75Z"/>
            </g>
            <path class="cls-6" d="M189.65,236.47c-.74-6.24-.29-12.46,1.35-18.48l.96.26c-1.6,5.9-2.05,11.99-1.32,18.1l-.99.12Z"/>
            <path class="cls-6" d="M192.68,248.54c-.89-2.26-1.61-4.61-2.15-6.98l.97-.22c.53,2.32,1.24,4.62,2.11,6.84l-.93.37Z"/>
            <circle class="cls-6" cx="237.77" cy="230.75" r="44.98" transform="translate(-41.65 52.7) rotate(-11.64)"/>
            <path class="cls-11" d="M227.15,242.12l7.06-9.88c-2.45-3.08-3.76-6.03-3.92-8.84-.16-2.81.66-5.49,2.48-8.04,1.84-2.58,4.2-4.16,7.08-4.75,2.88-.59,5.76-.05,8.66,1.61l1.7-2.39,3.42,2.44-1.7,2.39c2.29,2.08,3.66,4.36,4.14,6.82.47,2.46.07,5.02-1.2,7.67l-6.52-3.48c.96-2.11.92-4.04-.14-5.79l-6.58,9.22c3.04,3.72,4.67,6.88,4.87,9.48.21,2.6-.6,5.18-2.42,7.72-2.03,2.84-4.6,4.63-7.72,5.35-3.11.72-6.36.2-9.74-1.54l-1.7,2.39-3.42-2.44,1.62-2.27c-2.48-2.27-3.97-4.86-4.45-7.77-.49-2.91.14-6.08,1.88-9.51l6.62,3.74c-.65,1.44-.95,2.86-.91,4.26.04,1.41.34,2.62.9,3.63ZM244.83,217.37c-1.15-.35-2.27-.34-3.36.02-1.09.36-1.96,1-2.61,1.91-.6.83-.9,1.79-.9,2.86,0,1.07.34,2.2,1.05,3.37l5.83-8.16ZM230.33,244.9c1.34.62,2.68.76,4.05.42,1.36-.34,2.46-1.11,3.31-2.28.75-1.05,1.09-2.18,1.01-3.39-.08-1.21-.68-2.52-1.8-3.94l-6.57,9.19Z"/>
            <path class="cls-14" d="M274.21,226.95c-1.93-8.43-6.82-16.21-14.41-21.63-16.47-11.76-39.35-7.95-51.12,8.52-5.41,7.58-7.53,16.52-6.62,25.11-2.26-9.87-.45-20.62,5.9-29.5,11.76-16.47,34.65-20.28,51.11-8.52,8.89,6.35,14.09,15.95,15.15,26.02Z"/>
          </g>
          <path class="cls-3" d="M303.79,165.6c.99,1.27,1.83,2.41,2.67,3.64.84,1.21,1.66,2.43,2.46,3.67,1.59,2.48,3.1,5.02,4.5,7.63,1.42,2.6,2.7,5.32,3.88,8.1l.86,2.11.77,2.17c.27.71.48,1.47.71,2.22l.34,1.12.08.28.15.61c.11.43.15.84.2,1.26.12,1.65-.18,3.03-.54,4.16-.38,1.13-.86,2.05-1.35,2.88-.99,1.65-2.07,2.95-3.16,4.16-2.19,2.38-4.5,4.33-6.85,6.17-4.72,3.64-9.62,6.66-14.83,9.39l-3.23-4.94c4.18-3.57,8.37-7.33,12.17-11.14,1.89-1.91,3.68-3.88,5.12-5.84.71-.96,1.34-1.94,1.71-2.77.19-.41.3-.78.34-1,.04-.22-.03-.26-.03-.03-.01.07,0,.13.01.22,0,.03.03.12.02.09l-.09-.22-.35-.89c-.24-.59-.45-1.18-.73-1.77l-.79-1.77-.86-1.77c-1.19-2.35-2.46-4.69-3.83-7.01-1.38-2.31-2.81-4.61-4.3-6.87-.74-1.14-1.49-2.27-2.26-3.38l-2.28-3.25,9.48-7.22Z"/>
          <g>
            <path class="cls-6" d="M302.78,161.3c7.37,1.49,13.83,19.51,13.83,19.51l-15.38,12.53s-5.04-9.16-9.07-18c-4.39-9.63,1.69-15.84,10.62-14.04Z"/>
            <g class="cls-17">
              <path class="cls-11" d="M302.78,161.3c7.37,1.49,13.83,19.51,13.83,19.51l-15.38,12.53s-5.04-9.16-9.07-18c-4.39-9.63,1.69-15.84,10.62-14.04Z"/>
            </g>
          </g>
          <path class="cls-3" d="M292.27,219.54l-7.94.86,5.15,8.62s6.59-2.24,5.8-5.86l-3.02-3.62Z"/>
          <polygon class="cls-3" points="279.6 224.96 284.19 231.89 289.48 229.03 284.33 220.41 279.6 224.96"/>
        </g>
      </g>
    </g>
  </g>
</svg>